Coordinates
version=1
nRows=6
nColumns=63
inDegrees=yes

Units are S.I. units (second, meters, Newtons, ...)
If the header above contains a line with 'inDegrees', this indicates whether rotational values are in degrees (yes) or radians (no).

endheader
time	pelvis_tilt	pelvis_list	pelvis_rotation	pelvis_tx	pelvis_ty	pelvis_tz	hip_flexion_r	hip_adduction_r	hip_rotation_r	knee_angle_r	knee_angle_r_beta	ankle_angle_r	subtalar_angle_r	mtp_angle_r	hip_flexion_l	hip_adduction_l	hip_rotation_l	knee_angle_l	knee_angle_l_beta	ankle_angle_l	subtalar_angle_l	mtp_angle_l	L5_S1_Flex_Ext	L5_S1_Lat_Bending	L5_S1_axial_rotation	L4_L5_Flex_Ext	L4_L5_Lat_Bending	L4_L5_axial_rotation	L3_L4_Flex_Ext	L3_L4_Lat_Bending	L3_L4_axial_rotation	L2_L3_Flex_Ext	L2_L3_Lat_Bending	L2_L3_axial_rotation	L1_L2_Flex_Ext	L1_L2_Lat_Bending	L1_L2_axial_rotation	L1_T12_Flex_Ext	L1_T12_Lat_Bending	L1_T12_axial_rotation	Abs_r3	Abs_r2	Abs_r1	Abs_t1	Abs_t2	neck_flexion	neck_bending	neck_rotation	arm_flex_r	arm_add_r	arm_rot_r	elbow_flex_r	pro_sup_r	wrist_flex_r	wrist_dev_r	arm_flex_l	arm_add_l	arm_rot_l	elbow_flex_l	pro_sup_l	wrist_flex_l	wrist_dev_l
      1.77272727	      5.75723256	      0.00901175	     87.64695498	      0.30891648	      0.80109507	      0.53736631	     -2.42770896	      3.91487153	      9.04737914	      0.29273039	      0.00510911	     14.56367525	     -9.91021119	      0.00000000	     -2.35748993	     -5.12660360	      3.12985185	      3.19957836	      0.05584318	     22.29310348	    -11.53786421	      0.00000000	     -0.05252092	      0.71346949	      1.51578038	     -0.09753659	      0.94891443	      1.61051666	     -0.08628661	      1.73472973	      1.61051666	     -0.06002615	      1.73472973	      1.32630783	     -0.04877092	      1.45490699	      1.23157156	     -0.03001045	      1.10516425	      1.13683529	     -0.37515165	      8.07090961	      8.43031575	      0.00000000	      0.00000000	     27.23157515	      0.95119952	      7.08622484	      4.17974370	    -13.00076675	     92.34278235	     14.89090359	      8.75908607	     -6.10495424	     -7.94098713	     12.47615032	     -7.62920971	    108.59575844	     15.51221314	     18.94524931	     -9.72707081	     -9.71051646
      1.79545455	      5.91097961	     -0.16345810	     87.64648485	      0.30866413	      0.80106939	      0.53721961	     -2.20737791	      4.08010109	      8.51852849	      0.30010954	      0.00523790	     14.42918730	     -9.41294491	      0.00000000	     -2.16283453	     -5.28436252	      2.74411634	      3.30045891	      0.05760387	     22.75772865	    -10.96916376	      0.00000000	     -0.03123736	      0.73672538	      1.45341548	     -0.05801091	      0.97984476	      1.54425395	     -0.05131987	      1.79127410	      1.54425395	     -0.03570118	      1.79127410	      1.27173855	     -0.02900702	      1.50233040	      1.18090008	     -0.01784903	      1.14118762	      1.09006161	     -0.22312537	      8.33398490	      8.08346090	      0.00000000	      0.00000000	     27.24929975	      0.98584683	      7.39055438	      4.21940247	    -13.07972056	     91.89674796	     14.90722938	      9.65915819	     -6.29044177	     -7.69796995	     12.39169428	     -7.72719472	    108.12979132	     15.83137791	     19.29025307	     -9.80018136	     -9.23212394
      1.81818182	      6.16377887	     -0.13728156	     87.72289241	      0.30810242	      0.80126919	      0.53687380	     -2.24073298	      4.37061857	     10.85769271	      0.29033428	      0.00506729	     13.05444626	    -13.60134617	      0.00000000	     -2.31782210	     -5.48360910	      4.44256525	      3.06351620	      0.05346844	     22.24518667	    -13.23158371	      0.00000000	     -0.03548320	      0.77858113	      1.35661471	     -0.06589585	      1.03551290	      1.44140313	     -0.05829535	      1.89304215	      1.44140313	     -0.04055375	      1.89304215	      1.18703787	     -0.03294970	      1.58768263	      1.10224945	     -0.02027510	      1.20602217	      1.01746103	     -0.25345293	      8.80746542	      7.54508404	      0.00000000	      0.00000000	     27.15440411	      1.16955213	      8.18211139	      4.72136694	    -13.19309573	     95.58316414	     14.70143664	      7.02035931	     -5.83730870	     -8.00661771	     12.36315825	     -7.57192370	    109.78774728	     15.81112191	     16.54371556	     -9.30307397	     -9.36786074
      1.84090909	      6.27688851	     -0.17563414	     87.70723955	      0.30777940	      0.80135325	      0.53673434	     -2.19789275	      4.48776070	     10.96003008	      0.29347813	      0.00512216	     12.90165887	    -13.77651323	      0.00000000	     -2.34264767	     -5.60073926	      4.37357552	      2.91302893	      0.05084195	     22.55870941	    -12.80549215	      0.00000000	     -0.03092183	      0.79844412	      1.33206681	     -0.05742494	      1.06193068	      1.41532099	     -0.05080148	      1.94133703	      1.41532099	     -0.03534056	      1.94133703	      1.16555846	     -0.02871401	      1.62818724	      1.08230429	     -0.01766874	      1.23678994	      0.99905011	     -0.22087156	      9.03215954	      7.40855599	      0.00000000	      0.00000000	     27.12300596	      1.16164671	      8.40482883	      4.77439356	    -13.31268364	     95.51021151	     14.77833036	      7.09599509	     -5.93855097	     -8.03825075	     12.18740877	     -7.44632784	    109.46817485	     15.64549035	     16.64812784	     -9.17783544	     -8.98779639
      1.86363636	      6.30353253	     -0.13975339	     87.71554599	      0.30748882	      0.80146039	      0.53667615	     -2.26470704	      4.50644108	     10.81908733	      0.29921321	      0.00522226	     12.82777539	    -13.60041490	      0.00000000	     -2.41221812	     -5.62552111	      4.35497892	      2.77453428	      0.04842476	     22.86592534	    -12.46338901	      0.00000000	     -0.03576126	      0.80607613	      1.33343415	     -0.06641224	      1.07208125	      1.41677379	     -0.05875217	      1.95989349	      1.41677379	     -0.04087154	      1.95989349	      1.16675488	     -0.03320791	      1.64375044	      1.08341525	     -0.02043398	      1.24861192	      1.00007561	     -0.25543911	      9.11849435	      7.41616072	      0.00000000	      0.00000000	     27.09655374	      0.94356497	      8.43058514	      4.77597470	    -13.36643667	     95.15821912	     14.81602474	      7.17972707	     -6.02212004	     -8.07699698	     12.02062806	     -7.24994498	    109.27289539	     15.28512646	     16.91477275	     -9.11329721	     -8.58551190
      1.88636364	      6.22696185	     -0.07442094	     87.72970667	      0.30738336	      0.80147287	      0.53659517	     -2.40504728	      4.41943045	     10.79349288	      0.30731816	      0.00536371	     12.61491596	    -13.62701941	      0.00000000	     -2.43955855	     -5.54693099	      4.50439635	      2.77327810	      0.04840283	     23.17897791	    -12.46746419	      0.00000000	     -0.04027489	      0.79840894	      1.35688558	     -0.07479449	      1.06188388	      1.44169093	     -0.06616761	      1.94125149	      1.44169093	     -0.04603017	      1.94125149	      1.18727489	     -0.03739926	      1.62811550	      1.10246954	     -0.02301307	      1.23673544	      1.01766419	     -0.28767949	      9.03176156	      7.54659056	      0.00000000	      0.00000000	     27.04137336	      0.78757090	      8.43619710	      4.74663447	    -13.32183475	     95.04199925	     14.79922836	      7.06883735	     -6.05967061	     -8.10053755	     11.88762875	     -7.11863410	    109.25735959	     14.99709503	     16.91900665	     -9.17420103	     -8.44819547
